<?xml version="1.0" encoding="utf-8"?>
<svg version="1.1" xmlns:xlink="http://www.w3.org/1999/xlink" width="12px" height="12px" xmlns="http://www.w3.org/2000/svg">
  <g transform="matrix(1 0 0 1 -1241 -359 )">
    <path d="M 11.7171717171717 8.96969696969697  C 11.9057239057239 9.15824915824916  12 9.38720538720538  12 9.65656565656566  C 12 9.92592592592592  11.9057239057239 10.1548821548822  11.7171717171717 10.3434343434343  L 10.3434343434344 11.7171717171717  C 10.1548821548822 11.9057239057239  9.92592592592592 12  9.65656565656565 12  C 9.38720538720537 12  9.15824915824913 11.9057239057239  8.969696969697 11.7171717171717  L 6 8.74747474747475  L 3.030303030303 11.7171717171717  C 2.84175084175087 11.9057239057239  2.61279461279463 12  2.34343434343435 12  C 2.07407407407408 12  1.84511784511784 11.9057239057239  1.65656565656565 11.7171717171717  L 0.282828282828291 10.3434343434343  C 0.094276094276097 10.1548821548822  0 9.92592592592592  0 9.65656565656566  C 0 9.38720538720538  0.094276094276097 9.15824915824916  0.282828282828291 8.96969696969697  L 3.25252525252523 6  L 0.282828282828291 3.03030303030303  C 0.094276094276097 2.84175084175084  0 2.61279461279462  0 2.34343434343434  C 0 2.07407407407408  0.094276094276097 1.84511784511784  0.282828282828291 1.65656565656566  L 1.65656565656565 0.282828282828291  C 1.84511784511784 0.094276094276097  2.07407407407408 0  2.34343434343435 0  C 2.61279461279463 0  2.84175084175087 0.094276094276097  3.030303030303 0.282828282828291  L 6 3.25252525252526  L 8.969696969697 0.282828282828291  C 9.15824915824913 0.094276094276097  9.38720538720537 0  9.65656565656565 0  C 9.92592592592592 0  10.1548821548822 0.094276094276097  10.3434343434344 0.282828282828291  L 11.7171717171717 1.65656565656566  C 11.9057239057239 1.84511784511784  12 2.07407407407408  12 2.34343434343434  C 12 2.61279461279462  11.9057239057239 2.84175084175084  11.7171717171717 3.03030303030303  L 8.74747474747477 6  L 11.7171717171717 8.96969696969697  Z " fill-rule="nonzero" fill="#aaaaaa" stroke="none" transform="matrix(1 0 0 1 1241 359 )" />
  </g>
</svg>