<?xml version="1.0" encoding="utf-8"?>
<svg version="1.1" xmlns:xlink="http://www.w3.org/1999/xlink" width="128px" height="25px" xmlns="http://www.w3.org/2000/svg">
  <defs>
    <mask fill="white" id="clip10">
      <path d="M 0 25  L 15 0  L 46.9724770642201 0  L 83.3761467889908 0  L 113.207547169811 0  L 128 25  L 0 25  Z " fill-rule="evenodd" />
    </mask>
  </defs>
  <g transform="matrix(1 0 0 1 -610 -268 )">
    <path d="M 0 25  L 15 0  L 46.9724770642201 0  L 83.3761467889908 0  L 113.207547169811 0  L 128 25  L 0 25  Z " fill-rule="nonzero" fill="#ffffff" stroke="none" transform="matrix(1 0 0 1 610 268 )" />
    <path d="M 0 25  L 15 0  L 46.9724770642201 0  L 83.3761467889908 0  L 113.207547169811 0  L 128 25  L 0 25  Z " stroke-width="2" stroke="#797979" fill="none" transform="matrix(1 0 0 1 610 268 )" mask="url(#clip10)" />
  </g>
</svg>