<?xml version="1.0" encoding="utf-8"?>
<svg version="1.1" xmlns:xlink="http://www.w3.org/1999/xlink" width="16px" height="16px" xmlns="http://www.w3.org/2000/svg">
  <g transform="matrix(1 0 0 1 -299 -226 )">
    <path d="M 307 226  C 311.48 226  315 229.52  315 234  C 315 238.48  311.48 242  307 242  C 302.52 242  299 238.48  299 234  C 299 229.52  302.52 226  307 226  Z " fill-rule="nonzero" fill="#ffffff" stroke="none" />
    <path d="M 307 226.5  C 311.2 226.5  314.5 229.8  314.5 234  C 314.5 238.2  311.2 241.5  307 241.5  C 302.8 241.5  299.5 238.2  299.5 234  C 299.5 229.8  302.8 226.5  307 226.5  Z " stroke-width="1" stroke="#797979" fill="none" />
  </g>
</svg>