<?xml version="1.0" encoding="utf-8"?>
<svg version="1.1" xmlns:xlink="http://www.w3.org/1999/xlink" width="64px" height="6px" preserveAspectRatio="xMinYMid meet" viewBox="160 89  64 4" xmlns="http://www.w3.org/2000/svg">
  <path d="M 165.5 87.5  A 3.5 3.5 0 0 0 162 91 A 3.5 3.5 0 0 0 165.5 94.5 A 3.5 3.5 0 0 0 169 91 A 3.5 3.5 0 0 0 165.5 87.5 Z M 218.5 87.5  A 3.5 3.5 0 0 0 215 91 A 3.5 3.5 0 0 0 218.5 94.5 A 3.5 3.5 0 0 0 222 91 A 3.5 3.5 0 0 0 218.5 87.5 Z " fill-rule="nonzero" fill="#4777e6" stroke="none" />
  <path d="M 164 91  L 220 91  " stroke-width="2" stroke="#4777e6" fill="none" />
</svg>