<?xml version="1.0" encoding="utf-8"?>
<svg version="1.1" xmlns:xlink="http://www.w3.org/1999/xlink" width="228px" height="74px" xmlns="http://www.w3.org/2000/svg">
  <g transform="matrix(1 0 0 1 -864 -519 )">
    <path d="M 864.5 577.220108695652  C 864.5 577.220108695652  864.5 524  864.5 524  C 864.5 521.514718625761  866.514718625761 519.5  869 519.5  C 869 519.5  1087 519.5  1087 519.5  C 1089.48528137424 519.5  1091.5 521.514718625761  1091.5 524  C 1091.5 524  1091.5 577.220108695652  1091.5 577.220108695652  C 1091.5 579.705390069891  1089.48528137424 581.720108695652  1087 581.720108695652  C 1087 581.720108695652  1018.5 581.720108695652  1018.5 581.720108695652  C 1018.5 581.720108695652  1018.5 592.380712469631  1018.5 592.380712469631  C 1018.5 592.380712469631  969.053287259586 581.720108695652  969.053287259586 581.720108695652  C 969.053287259586 581.720108695652  869 581.720108695652  869 581.720108695652  C 866.514718625761 581.720108695652  864.5 579.705390069891  864.5 577.220108695652  Z " fill-rule="nonzero" fill="#ffffff" stroke="none" />
    <path d="M 864 577.220108695652  C 864 577.220108695652  864 524  864 524  C 864 521.238576250846  866.238576250846 519  869 519  C 869 519  1087 519  1087 519  C 1089.76142374915 519  1092 521.238576250846  1092 524  C 1092 524  1092 577.220108695652  1092 577.220108695652  C 1092 579.981532444806  1089.76142374915 582.220108695652  1087 582.220108695652  C 1087 582.220108695652  1019 582.220108695652  1019 582.220108695652  C 1019 582.220108695652  1019 593  1019 593  C 1019 593  969 582.220108695652  969 582.220108695652  C 969 582.220108695652  869 582.220108695652  869 582.220108695652  C 866.238576250846 582.220108695652  864 579.981532444806  864 577.220108695652  Z M 865 577.220108695652  C 865 579.429247694975  866.790861000677 581.220108695652  869 581.220108695652  C 869 581.220108695652  969.106574519177 581.220108695652  969.106574519177 581.220108695652  C 969.106574519177 581.220108695652  1018 591.761424939262  1018 591.761424939262  C 1018 591.761424939262  1018 581.220108695652  1018 581.220108695652  C 1018 581.220108695652  1087 581.220108695652  1087 581.220108695652  C 1089.20913899932 581.220108695652  1091 579.429247694975  1091 577.220108695652  C 1091 577.220108695652  1091 524  1091 524  C 1091 521.790861000677  1089.20913899932 520  1087 520  C 1087 520  869 520  869 520  C 866.790861000677 520  865 521.790861000677  865 524  C 865 524  865 577.220108695652  865 577.220108695652  Z " fill-rule="nonzero" fill="#d7d7d7" stroke="none" />
  </g>
</svg>