<?xml version="1.0" encoding="utf-8"?>
<svg version="1.1" xmlns:xlink="http://www.w3.org/1999/xlink" width="13px" height="13px" xmlns="http://www.w3.org/2000/svg">
  <g transform="matrix(1 0 0 1 -1241 -266 )">
    <path d="M 7.37174479166667 8.87825520833333  C 7.42252604166667 8.92903645833333  7.44791666666667 8.99392361111111  7.44791666666667 9.07291666666667  L 7.44791666666667 10.4270833333333  C 7.44791666666667 10.5060763888889  7.42252604166667 10.5709635416667  7.37174479166667 10.6217447916667  C 7.32096354166667 10.6725260416667  7.25607638888889 10.6979166666667  7.17708333333333 10.6979166666667  L 5.82291666666667 10.6979166666667  C 5.74392361111111 10.6979166666667  5.67903645833333 10.6725260416667  5.62825520833333 10.6217447916667  C 5.57747395833333 10.5709635416667  5.55208333333333 10.5060763888889  5.55208333333333 10.4270833333333  L 5.55208333333333 9.07291666666667  C 5.55208333333333 8.99392361111111  5.57747395833333 8.92903645833333  5.62825520833333 8.87825520833333  C 5.67903645833333 8.82747395833333  5.74392361111111 8.80208333333333  5.82291666666667 8.80208333333333  L 7.17708333333333 8.80208333333333  C 7.25607638888889 8.80208333333333  7.32096354166667 8.82747395833333  7.37174479166667 8.87825520833333  Z M 8.68782552083333 3.0595703125  C 9.3056640625 3.56456163194444  9.61458333333333 4.16970486111111  9.61458333333333 4.875  C 9.61458333333333 5.15711805555556  9.572265625 5.41102430555556  9.48763020833333 5.63671875  C 9.40299479166667 5.86241319444444  9.27463107638889 6.05707465277778  9.1025390625 6.220703125  C 8.93044704861111 6.38433159722222  8.78374565972222 6.50846354166667  8.66243489583333 6.59309895833333  C 8.54112413194444 6.677734375  8.37326388888889 6.779296875  8.15885416666667 6.89778645833333  C 7.97829861111111 6.99934895833333  7.84711371527778 7.07834201388889  7.76529947916667 7.134765625  C 7.68348524305556 7.19118923611111  7.61013454861111 7.25889756944444  7.54524739583333 7.337890625  C 7.48036024305556 7.41688368055556  7.44791666666667 7.49869791666667  7.44791666666667 7.58333333333333  L 7.44791666666667 7.85416666666667  C 7.44791666666667 7.93315972222222  7.42252604166667 7.998046875  7.37174479166667 8.048828125  C 7.32096354166667 8.099609375  7.25607638888889 8.125  7.17708333333333 8.125  L 5.82291666666667 8.125  C 5.74392361111111 8.125  5.67903645833333 8.099609375  5.62825520833333 8.048828125  C 5.57747395833333 7.998046875  5.55208333333333 7.93315972222222  5.55208333333333 7.85416666666667  L 5.55208333333333 7.27864583333333  C 5.55208333333333 7.08116319444444  5.58170572916667 6.89919704861111  5.64095052083333 6.73274739583333  C 5.7001953125 6.56629774305556  5.76790364583333 6.43229166666667  5.84407552083333 6.33072916666667  C 5.92024739583333 6.22916666666667  6.0302734375 6.12901475694444  6.17415364583333 6.0302734375  C 6.31803385416667 5.93153211805556  6.43370225694444 5.85959201388889  6.52115885416667 5.814453125  C 6.60861545138889 5.76931423611111  6.73415798611111 5.71006944444444  6.89778645833333 5.63671875  C 7.19683159722222 5.49565972222222  7.40842013888889 5.37434895833333  7.53255208333333 5.27278645833333  C 7.65668402777778 5.17122395833333  7.71875 5.03298611111111  7.71875 4.85807291666667  C 7.71875 4.62109375  7.59602864583333 4.41937934027778  7.3505859375 4.2529296875  C 7.10514322916667 4.08648003472222  6.83572048611111 4.00325520833333  6.54231770833333 4.00325520833333  C 6.22634548611111 4.00325520833333  5.95833333333333 4.07942708333333  5.73828125 4.23177083333333  C 5.57465277777778 4.34461805555556  5.34895833333333 4.57877604166667  5.06119791666667 4.93424479166667  C 5.01041666666667 5.001953125  4.93988715277778 5.03580729166667  4.849609375 5.03580729166667  C 4.78754340277778 5.03580729166667  4.73394097222222 5.01888020833333  4.68880208333333 4.98502604166667  L 3.77473958333333 4.291015625  C 3.71831597222222 4.25151909722222  3.68446180555556 4.19509548611111  3.67317708333333 4.12174479166667  C 3.66189236111111 4.04839409722222  3.67599826388889 3.98350694444444  3.71549479166667 3.92708333333333  C 4.40386284722222 2.84375  5.38845486111111 2.30208333333333  6.66927083333333 2.30208333333333  C 7.39713541666667 2.30208333333333  8.06998697916667 2.55457899305555  8.68782552083333 3.0595703125  Z M 8.60319010416667 1.51497395833333  C 7.9345703125 1.22721354166667  7.23350694444444 1.08333333333333  6.5 1.08333333333333  C 5.76649305555556 1.08333333333333  5.0654296875 1.22721354166667  4.39680989583333 1.51497395833333  C 3.72819010416667 1.802734375  3.15266927083333 2.18782552083333  2.67024739583333 2.67024739583333  C 2.18782552083333 3.15266927083333  1.802734375 3.72819010416667  1.51497395833333 4.39680989583333  C 1.22721354166667 5.0654296875  1.08333333333333 5.76649305555556  1.08333333333333 6.5  C 1.08333333333333 7.23350694444444  1.22721354166667 7.9345703125  1.51497395833333 8.60319010416667  C 1.802734375 9.27180989583333  2.18782552083333 9.84733072916667  2.67024739583333 10.3297526041667  C 3.15266927083333 10.8121744791667  3.72819010416667 11.197265625  4.39680989583333 11.4850260416667  C 5.0654296875 11.7727864583333  5.76649305555556 11.9166666666667  6.5 11.9166666666667  C 7.23350694444444 11.9166666666667  7.9345703125 11.7727864583333  8.60319010416667 11.4850260416667  C 9.27180989583333 11.197265625  9.84733072916667 10.8121744791667  10.3297526041667 10.3297526041667  C 10.8121744791667 9.84733072916667  11.197265625 9.27180989583333  11.4850260416667 8.60319010416667  C 11.7727864583333 7.9345703125  11.9166666666667 7.23350694444444  11.9166666666667 6.5  C 11.9166666666667 5.76649305555556  11.7727864583333 5.0654296875  11.4850260416667 4.39680989583333  C 11.197265625 3.72819010416667  10.8121744791667 3.15266927083333  10.3297526041667 2.67024739583333  C 9.84733072916667 2.18782552083333  9.27180989583333 1.802734375  8.60319010416667 1.51497395833333  Z M 12.1282552083333 3.2373046875  C 12.7094184027778 4.23318142361111  13 5.32074652777778  13 6.5  C 13 7.67925347222222  12.7094184027778 8.76681857638889  12.1282552083333 9.7626953125  C 11.5470920138889 10.7585720486111  10.7585720486111 11.5470920138889  9.7626953125 12.1282552083333  C 8.76681857638889 12.7094184027778  7.67925347222222 13  6.5 13  C 5.32074652777778 13  4.23318142361111 12.7094184027778  3.2373046875 12.1282552083333  C 2.24142795138889 11.5470920138889  1.45290798611111 10.7585720486111  0.871744791666667 9.7626953125  C 0.290581597222222 8.76681857638889  0 7.67925347222222  0 6.5  C 0 5.32074652777778  0.290581597222222 4.23318142361111  0.871744791666667 3.2373046875  C 1.45290798611111 2.24142795138889  2.24142795138889 1.45290798611111  3.2373046875 0.871744791666666  C 4.23318142361111 0.290581597222221  5.32074652777778 0  6.5 0  C 7.67925347222222 0  8.76681857638889 0.290581597222221  9.7626953125 0.871744791666666  C 10.7585720486111 1.45290798611111  11.5470920138889 2.24142795138889  12.1282552083333 3.2373046875  Z " fill-rule="nonzero" fill="#000000" stroke="none" transform="matrix(1 0 0 1 1241 266 )" />
  </g>
</svg>