<?xml version="1.0" encoding="utf-8"?>
<svg version="1.1" xmlns:xlink="http://www.w3.org/1999/xlink" width="355px" height="91px" xmlns="http://www.w3.org/2000/svg">
  <g transform="matrix(1 0 0 1 -1422 -1082 )">
    <path d="M 1521.54562601844 1152.08232156184  C 1521.54562601844 1152.08232156184  1521.54562601844 1087  1521.54562601844 1087  C 1521.54562601844 1084.51471862576  1523.5603446442 1082.5  1526.04562601844 1082.5  C 1526.04562601844 1082.5  1772 1082.5  1772 1082.5  C 1774.48528137424 1082.5  1776.5 1084.51471862576  1776.5 1087  C 1776.5 1087  1776.5 1159.06735959966  1776.5 1159.06735959966  C 1776.5 1161.5526409739  1774.48528137424 1163.56735959966  1772 1163.56735959966  C 1772 1163.56735959966  1530.22879023125 1163.56735959966  1530.22879023125 1163.56735959966  C 1530.22879023125 1163.56735959966  1429.75071655589 1171.21673290603  1429.75071655589 1171.21673290603  C 1429.75071655589 1171.21673290603  1521.54562601844 1152.08232156184  1521.54562601844 1152.08232156184  Z " fill-rule="nonzero" fill="#ffffff" stroke="none" />
    <path d="M 1521.04562601844 1151.67579818683  C 1521.04562601844 1151.67579818683  1521.04562601844 1087  1521.04562601844 1087  C 1521.04562601844 1084.23857625085  1523.28420226928 1082  1526.04562601844 1082  C 1526.04562601844 1082  1772 1082  1772 1082  C 1774.76142374915 1082  1777 1084.23857625085  1777 1087  C 1777 1087  1777 1159.06735959966  1777 1159.06735959966  C 1777 1161.82878334882  1774.76142374915 1164.06735959966  1772 1164.06735959966  C 1772 1164.06735959966  1530.24779517825 1164.06735959966  1530.24779517825 1164.06735959966  C 1530.24779517825 1164.06735959966  1422.10098854989 1172.30055183287  1422.10098854989 1172.30055183287  C 1422.10098854989 1172.30055183287  1521.04562601844 1151.67579818683  1521.04562601844 1151.67579818683  Z M 1522.04562601844 1152.48884493684  C 1522.04562601844 1152.48884493684  1437.40044456188 1170.13291397919  1437.40044456188 1170.13291397919  C 1437.40044456188 1170.13291397919  1530.20978528425 1163.06735959966  1530.20978528425 1163.06735959966  C 1530.20978528425 1163.06735959966  1772 1163.06735959966  1772 1163.06735959966  C 1774.20913899932 1163.06735959966  1776 1161.27649859899  1776 1159.06735959966  C 1776 1159.06735959966  1776 1087  1776 1087  C 1776 1084.79086100068  1774.20913899932 1083  1772 1083  C 1772 1083  1526.04562601844 1083  1526.04562601844 1083  C 1523.83648701911 1083  1522.04562601844 1084.79086100068  1522.04562601844 1087  C 1522.04562601844 1087  1522.04562601844 1152.48884493684  1522.04562601844 1152.48884493684  Z " fill-rule="nonzero" fill="#d7d7d7" stroke="none" />
  </g>
</svg>