<?xml version="1.0" encoding="utf-8"?>
<svg version="1.1" xmlns:xlink="http://www.w3.org/1999/xlink" width="12px" height="12px" viewBox="1363 1173  12 12" xmlns="http://www.w3.org/2000/svg">
  <path d="M 1369 1173  C 1372.36 1173  1375 1175.64  1375 1179  C 1375 1182.36  1372.36 1185  1369 1185  C 1365.64 1185  1363 1182.36  1363 1179  C 1363 1175.64  1365.64 1173  1369 1173  Z " fill-rule="nonzero" fill="#ffffff" stroke="none" fill-opacity="0" />
  <path d="M 1369 1173.5  C 1372.08 1173.5  1374.5 1175.92  1374.5 1179  C 1374.5 1182.08  1372.08 1184.5  1369 1184.5  C 1365.92 1184.5  1363.5 1182.08  1363.5 1179  C 1363.5 1175.92  1365.92 1173.5  1369 1173.5  Z " stroke-width="1" stroke="#797979" fill="none" />
  <path d="M 1369 1182  C 1367.32 1182  1366 1180.68  1366 1179  C 1366 1177.32  1367.32 1176  1369 1176  C 1370.68 1176  1372 1177.32  1372 1179  C 1372 1180.68  1370.68 1182  1369 1182  " fill-rule="nonzero" fill="#797979" stroke="none" />
</svg>