<?xml version="1.0" encoding="utf-8"?>
<svg version="1.1" xmlns:xlink="http://www.w3.org/1999/xlink" width="12px" height="12px" viewBox="1363 1121  12 12" xmlns="http://www.w3.org/2000/svg">
  <path d="M 1369 1121  C 1372.36 1121  1375 1123.64  1375 1127  C 1375 1130.36  1372.36 1133  1369 1133  C 1365.64 1133  1363 1130.36  1363 1127  C 1363 1123.64  1365.64 1121  1369 1121  Z " fill-rule="nonzero" fill="#ffffff" stroke="none" fill-opacity="0" />
  <path d="M 1369 1121.5  C 1372.08 1121.5  1374.5 1123.92  1374.5 1127  C 1374.5 1130.08  1372.08 1132.5  1369 1132.5  C 1365.92 1132.5  1363.5 1130.08  1363.5 1127  C 1363.5 1123.92  1365.92 1121.5  1369 1121.5  Z " stroke-width="1" stroke="#797979" fill="none" />
  <path d="M 1369 1130  C 1367.32 1130  1366 1128.68  1366 1127  C 1366 1125.32  1367.32 1124  1369 1124  C 1370.68 1124  1372 1125.32  1372 1127  C 1372 1128.68  1370.68 1130  1369 1130  " fill-rule="nonzero" fill="#797979" stroke="none" />
</svg>