<?xml version="1.0" encoding="utf-8"?>
<svg version="1.1" xmlns:xlink="http://www.w3.org/1999/xlink" width="12px" height="12px" viewBox="1363 1146  12 12" xmlns="http://www.w3.org/2000/svg">
  <path d="M 1369 1146  C 1372.36 1146  1375 1148.64  1375 1152  C 1375 1155.36  1372.36 1158  1369 1158  C 1365.64 1158  1363 1155.36  1363 1152  C 1363 1148.64  1365.64 1146  1369 1146  Z " fill-rule="nonzero" fill="#ffffff" stroke="none" fill-opacity="0" />
  <path d="M 1369 1146.5  C 1372.08 1146.5  1374.5 1148.92  1374.5 1152  C 1374.5 1155.08  1372.08 1157.5  1369 1157.5  C 1365.92 1157.5  1363.5 1155.08  1363.5 1152  C 1363.5 1148.92  1365.92 1146.5  1369 1146.5  Z " stroke-width="1" stroke="#797979" fill="none" />
  <path d="M 1369 1155  C 1367.32 1155  1366 1153.68  1366 1152  C 1366 1150.32  1367.32 1149  1369 1149  C 1370.68 1149  1372 1150.32  1372 1152  C 1372 1153.68  1370.68 1155  1369 1155  " fill-rule="nonzero" fill="#797979" stroke="none" />
</svg>