<?xml version="1.0" encoding="utf-8"?>
<svg version="1.1" xmlns:xlink="http://www.w3.org/1999/xlink" width="11px" height="4px" xmlns="http://www.w3.org/2000/svg">
  <g transform="matrix(1 0 0 1 -1754 -48 )">
    <path d="M 10.78125 0.291666666666659  C 10.9270833333333 0.486111111111122  11 0.722222222222215  11 1.00000000000001  L 11 2.99999999999999  C 11 3.27777777777779  10.9270833333333 3.51388888888888  10.78125 3.70833333333334  C 10.6354166666667 3.90277777777777  10.4583333333333 4  10.25 4  L 0.75 4  C 0.541666666666657 4  0.364583333333343 3.90277777777777  0.21875 3.70833333333334  C 0.0729166666666572 3.51388888888888  0 3.27777777777779  0 2.99999999999999  L 0 1.00000000000001  C 0 0.722222222222215  0.0729166666666572 0.486111111111122  0.21875 0.291666666666659  C 0.364583333333343 0.0972222222222318  0.541666666666657 0  0.75 0  L 10.25 0  C 10.4583333333333 0  10.6354166666667 0.0972222222222318  10.78125 0.291666666666659  Z " fill-rule="nonzero" fill="#222222" stroke="none" transform="matrix(1 0 0 1 1754 48 )" />
  </g>
</svg>